<svg width="1512" height="982" viewBox="0 0 1512 982" fill="none" xmlns="http://www.w3.org/2000/svg">
<g style="mix-blend-mode:overlay">
<g filter="url(#filter0_f_11_101)">
<circle cx="858.5" cy="134.5" r="2.5" fill="white"/>
<circle cx="665" cy="155" r="6" fill="white"/>
<circle cx="775.5" cy="126.5" r="2.5" fill="white"/>
<circle cx="1103" cy="130" r="6" fill="white"/>
<circle cx="1215.5" cy="232.5" r="2.5" fill="white"/>
<circle cx="1408" cy="252" r="5" fill="white"/>
<circle cx="1454" cy="496" r="5" fill="white"/>
<circle cx="1437" cy="665" r="5" fill="white"/>
<circle cx="1413.5" cy="814.5" r="2.5" fill="white"/>
<circle cx="1313.5" cy="759.5" r="8.5" fill="white"/>
<circle cx="844" cy="756" r="5" fill="white"/>
<circle cx="878" cy="673" r="5" fill="white"/>
<circle cx="951.5" cy="753.5" r="2.5" fill="white"/>
<circle cx="689" cy="756" r="5" fill="white"/>
<circle cx="655" cy="834" r="5" fill="white"/>
<circle cx="468.5" cy="762.5" r="2.5" fill="white"/>
<circle cx="117" cy="619" r="5" fill="white"/>
<circle cx="306" cy="872" r="5" fill="white"/>
<circle cx="335.5" cy="772.5" r="2.5" fill="white"/>
<circle cx="519.5" cy="589.5" r="2.5" fill="white"/>
<circle cx="1369" cy="80" r="5" fill="white"/>
<circle cx="391" cy="63" r="5" fill="white"/>
<circle cx="145.5" cy="168.5" r="2.5" fill="white"/>
<circle cx="408" cy="171" r="5" fill="white"/>
<circle cx="182" cy="434" r="5" fill="white"/>
<circle cx="961.5" cy="287.5" r="8.5" fill="white"/>
<circle cx="778" cy="575" r="5" fill="white"/>
<circle cx="841.5" cy="399.5" r="2.5" fill="white"/>
<circle cx="681" cy="288" r="5" fill="white"/>
</g>
</g>
<defs>
<filter id="filter0_f_11_101" x="110" y="56" width="1351" height="823" filterUnits="userSpaceOnUse" color-interpolation-filters="sRGB">
<feFlood flood-opacity="0" result="BackgroundImageFix"/>
<feBlend mode="normal" in="SourceGraphic" in2="BackgroundImageFix" result="shape"/>
<feGaussianBlur stdDeviation="1" result="effect1_foregroundBlur_11_101"/>
</filter>
</defs>
</svg>
