<svg width="26" height="26" viewBox="0 0 26 26" fill="none" xmlns="http://www.w3.org/2000/svg">
<path d="M10.5314 8C8.62455 8 7 9.434 7 11.2964C7 12.5812 7.59818 13.6629 8.39096 14.5589C9.18103 15.4519 10.2003 16.2014 11.1218 16.8287L12.7117 17.9111C12.8858 18.0296 13.1142 18.0296 13.2883 17.9111L14.8782 16.8287C15.7997 16.2014 16.819 15.4519 17.609 14.5589C18.4018 13.6629 19 12.5812 19 11.2964C19 9.434 17.3754 8 15.4686 8C14.4856 8 13.6207 8.46354 13 9.06333C12.3793 8.46354 11.5144 8 10.5314 8Z" fill="white"/>
</svg>
