<svg width="26" height="26" viewBox="0 0 26 26" fill="none" xmlns="http://www.w3.org/2000/svg">
<path d="M10.871 5.58065C10.871 5.25996 11.1309 5 11.4516 5H14.5484C14.8691 5 15.129 5.25996 15.129 5.58065V6.16129H18.4194C18.74 6.16129 19 6.42125 19 6.74194C19 7.06262 18.74 7.32258 18.4194 7.32258H7.58065C7.25996 7.32258 7 7.06262 7 6.74194C7 6.42125 7.25996 6.16129 7.58065 6.16129H10.871V5.58065Z" fill="white"/>
<path fill-rule="evenodd" clip-rule="evenodd" d="M8.54056 9.40886C8.56235 9.21283 8.72805 9.06452 8.92529 9.06452H17.0747C17.2719 9.06452 17.4376 9.21283 17.4594 9.40886L17.6144 10.8035C17.8937 13.3172 17.8937 15.8542 17.6144 18.368L17.5991 18.5053C17.4974 19.4209 16.7878 20.1509 15.8755 20.2786C13.9678 20.5457 12.0322 20.5457 10.1244 20.2786C9.21216 20.1509 8.50259 19.4209 8.40086 18.5053L8.38561 18.368C8.1063 15.8542 8.1063 13.3172 8.38561 10.8035L8.54056 9.40886ZM12.0323 12.0839C12.0323 11.7632 11.7723 11.5032 11.4516 11.5032C11.1309 11.5032 10.871 11.7632 10.871 12.0839L10.871 17.5032C10.871 17.8239 11.1309 18.0839 11.4516 18.0839C11.7723 18.0839 12.0323 17.8239 12.0323 17.5032L12.0323 12.0839ZM15.129 12.0839C15.129 11.7632 14.8691 11.5032 14.5484 11.5032C14.2277 11.5032 13.9677 11.7632 13.9677 12.0839V17.5032C13.9677 17.8239 14.2277 18.0839 14.5484 18.0839C14.8691 18.0839 15.129 17.8239 15.129 17.5032V12.0839Z" fill="white"/>
</svg>
