<svg width="25" height="26" viewBox="0 0 25 26" fill="none" xmlns="http://www.w3.org/2000/svg">
<mask id="mask0_26_165" style="mask-type:alpha" maskUnits="userSpaceOnUse" x="0" y="0" width="25" height="26">
<path d="M12.5 8.10148C10.0591 8.10148 8.08042 10.0802 8.08042 12.521C8.08042 14.9619 10.0591 16.9406 12.5 16.9406C14.9408 16.9406 16.9195 14.9619 16.9195 12.521C16.9195 10.0802 14.9408 8.10148 12.5 8.10148Z" fill="#BEBEBE"/>
<path fill-rule="evenodd" clip-rule="evenodd" d="M5.38726 0.393047C10.0762 -0.131016 14.9238 -0.131016 19.6127 0.393047C22.1943 0.681575 24.2765 2.71563 24.5795 5.30625C25.1402 10.0998 25.1402 14.9423 24.5795 19.7358C24.2765 22.3265 22.1943 24.3605 19.6127 24.649C14.9238 25.1731 10.0762 25.1731 5.38726 24.649C2.8057 24.3605 0.723481 22.3265 0.420485 19.7358C-0.140162 14.9423 -0.140162 10.0998 0.420485 5.30625C0.723481 2.71563 2.8057 0.681575 5.38726 0.393047ZM19.2993 4.36186C18.5483 4.36186 17.9394 4.97069 17.9394 5.72172C17.9394 6.47275 18.5483 7.08159 19.2993 7.08159C20.0503 7.08159 20.6592 6.47275 20.6592 5.72172C20.6592 4.97069 20.0503 4.36186 19.2993 4.36186ZM6.04063 12.521C6.04063 8.95364 8.93258 6.06169 12.5 6.06169C16.0674 6.06169 18.9593 8.95364 18.9593 12.521C18.9593 16.0885 16.0674 18.9804 12.5 18.9804C8.93258 18.9804 6.04063 16.0885 6.04063 12.521Z" fill="#BEBEBE"/>
</mask>
<g mask="url(#mask0_26_165)">
<rect width="25" height="25" fill="#BEBEBE"/>
</g>
</svg>
