<svg width="25" height="21" viewBox="0 0 25 21" fill="none" xmlns="http://www.w3.org/2000/svg">
<path d="M24.9758 2.85464C25.0501 2.75112 24.9404 2.61745 24.8216 2.6635C23.9773 2.99076 23.0949 3.21155 22.1949 3.32036C23.197 2.72165 23.9704 1.81027 24.3992 0.731251C24.4429 0.621333 24.3229 0.523172 24.2193 0.580354C23.2879 1.09475 22.2833 1.46515 21.2399 1.67848C21.1962 1.6874 21.1512 1.67253 21.1205 1.64018C20.3374 0.813898 19.3066 0.263749 18.1829 0.0736357C17.0356 -0.120471 15.8563 0.0717221 14.83 0.620072C13.8036 1.16842 12.9883 2.04191 12.512 3.10355C12.059 4.11296 11.9368 5.23817 12.1602 6.31881C12.1775 6.40265 12.1119 6.48181 12.0264 6.47651C9.99615 6.35041 8.01246 5.81039 6.19757 4.88898C4.38728 3.96992 2.78423 2.69134 1.48603 1.13212C1.42842 1.06292 1.31922 1.07187 1.27724 1.15153C0.873288 1.91808 0.661787 2.77245 0.662362 3.64079C0.660722 4.50514 0.872839 5.35649 1.27983 6.11903C1.68681 6.88157 2.27604 7.53165 2.99505 8.01137C2.23254 7.99063 1.48489 7.80212 0.804949 7.46034C0.717323 7.41629 0.612215 7.479 0.616772 7.57697C0.669794 8.7167 1.08821 9.86091 1.81245 10.7388C2.58316 11.673 3.65289 12.3123 4.84069 12.5486C4.38345 12.6877 3.90874 12.7611 3.43083 12.7665C3.17072 12.7634 2.91112 12.7442 2.65352 12.709C2.55801 12.696 2.48002 12.7867 2.51346 12.8771C2.86774 13.8352 3.49363 14.6711 4.31657 15.2814C5.1964 15.9338 6.25771 16.2957 7.35282 16.3168C5.50359 17.7718 3.22048 18.566 0.867434 18.5726C0.62565 18.5733 0.383974 18.5655 0.142867 18.5491C0.00699696 18.5398 -0.055492 18.7208 0.0616236 18.7903C2.35428 20.1509 4.97474 20.87 7.64761 20.8668C9.62103 20.8873 11.5787 20.5143 13.4064 19.7698C15.2341 19.0252 16.8951 17.9239 18.2924 16.5302C19.6896 15.1365 20.7952 13.4783 21.5445 11.6526C22.2937 9.82679 22.6717 7.87004 22.6563 5.89657V5.28158C22.6563 5.24111 22.6754 5.20306 22.7077 5.17867C23.5771 4.52226 24.3416 3.73859 24.9758 2.85464Z" fill="#BEBEBE"/>
</svg>
