<svg width="25" height="19" viewBox="0 0 25 19" fill="none" xmlns="http://www.w3.org/2000/svg">
<path fill-rule="evenodd" clip-rule="evenodd" d="M6.30692 0.241889C10.4293 -0.0806299 14.5707 -0.0806297 18.6931 0.241889L21.4623 0.458538C23.0047 0.579212 24.2666 1.73523 24.5215 3.26123C25.1595 7.07942 25.1595 10.977 24.5215 14.7952C24.2666 16.3212 23.0047 17.4772 21.4623 17.5979L18.6931 17.8145C14.5707 18.1371 10.4293 18.1371 6.30692 17.8145L3.53773 17.5979C1.99528 17.4772 0.733441 16.3212 0.47847 14.7952C-0.15949 10.977 -0.15949 7.07942 0.47847 3.26123C0.733441 1.73523 1.99528 0.579212 3.53773 0.458538L6.30692 0.241889ZM10.0282 12.081V5.97546C10.0282 5.68728 10.3426 5.50927 10.5898 5.65754L15.6777 8.71029C15.9177 8.8543 15.9177 9.20214 15.6777 9.34614L10.5898 12.3989C10.3426 12.5472 10.0282 12.3692 10.0282 12.081Z" fill="#BEBEBE"/>
</svg>
